<?xml version="1.0" standalone="no"?><?xml-stylesheet type="text/css" href="https://wps.processon.com/themes/default/wps/mind/icons/icons.css" ?><!DOCTYPE svg PUBLIC "-//W3C//DTD SVG 1.1//EN" "http://www.w3.org/Graphics/SVG/1.1/DTD/svg11.dtd"><svg id="SvgjsSvg1512" width="1023" height="572.25" xmlns="http://www.w3.org/2000/svg" version="1.1" xmlns:xlink="http://www.w3.org/1999/xlink" xmlns:svgjs="http://svgjs.com/svgjs"><defs id="SvgjsDefs1513"><pattern patternUnits="userSpaceOnUse" id="pattern_mark_0" width="300" height="300"><text x="150" y="100" fill="rgba(229,229,229,0.8)" font-size="18" transform="rotate(-45, 150, 150)" style="dominant-baseline: middle; text-anchor: middle;"></text></pattern><pattern patternUnits="userSpaceOnUse" id="pattern_mark_1" width="300" height="300"><text x="150" y="200" fill="rgba(229,229,229,0.8)" font-size="18" transform="rotate(-45, 150, 150)" style="dominant-baseline: middle; text-anchor: middle;"></text></pattern><marker id="SvgjsMarker1525" markerWidth="13" markerHeight="9" refX="9.5" refY="4.5" viewBox="0 0 13 9" orient="auto" markerUnits="userSpaceOnUse" stroke-dasharray="0,0"><path id="SvgjsPath1526" d="M0,0 L13,4.5 L0,9 L0,0" fill="#212930" stroke="#212930" stroke-width="1"></path></marker><marker id="SvgjsMarker1535" markerWidth="13" markerHeight="9" refX="9.5" refY="4.5" viewBox="0 0 13 9" orient="auto" markerUnits="userSpaceOnUse" stroke-dasharray="0,0"><path id="SvgjsPath1536" d="M0,0 L13,4.5 L0,9 L0,0" fill="#212930" stroke="#212930" stroke-width="1"></path></marker><marker id="SvgjsMarker1545" markerWidth="13" markerHeight="9" refX="9.5" refY="4.5" viewBox="0 0 13 9" orient="auto" markerUnits="userSpaceOnUse" stroke-dasharray="0,0"><path id="SvgjsPath1546" d="M0,0 L13,4.5 L0,9 L0,0" fill="#212930" stroke="#212930" stroke-width="1"></path></marker><marker id="SvgjsMarker1555" markerWidth="13" markerHeight="9" refX="9.5" refY="4.5" viewBox="0 0 13 9" orient="auto" markerUnits="userSpaceOnUse" stroke-dasharray="0,0"><path id="SvgjsPath1556" d="M0,0 L13,4.5 L0,9 L0,0" fill="#212930" stroke="#212930" stroke-width="1"></path></marker><marker id="SvgjsMarker1565" markerWidth="13" markerHeight="9" refX="9.5" refY="4.5" viewBox="0 0 13 9" orient="auto" markerUnits="userSpaceOnUse" stroke-dasharray="0,0"><path id="SvgjsPath1566" d="M0,0 L13,4.5 L0,9 L0,0" fill="#212930" stroke="#212930" stroke-width="1"></path></marker><marker id="SvgjsMarker1575" markerWidth="13" markerHeight="9" refX="9.5" refY="4.5" viewBox="0 0 13 9" orient="auto" markerUnits="userSpaceOnUse" stroke-dasharray="0,0"><path id="SvgjsPath1576" d="M0,0 L13,4.5 L0,9 L0,0" fill="#212930" stroke="#212930" stroke-width="1"></path></marker><marker id="SvgjsMarker1585" markerWidth="13" markerHeight="9" refX="9.5" refY="4.5" viewBox="0 0 13 9" orient="auto" markerUnits="userSpaceOnUse" stroke-dasharray="0,0"><path id="SvgjsPath1586" d="M0,0 L13,4.5 L0,9 L0,0" fill="#212930" stroke="#212930" stroke-width="1"></path></marker><marker id="SvgjsMarker1589" markerWidth="13" markerHeight="9" refX="9.5" refY="4.5" viewBox="0 0 13 9" orient="auto" markerUnits="userSpaceOnUse" stroke-dasharray="0,0"><path id="SvgjsPath1590" d="M0,0 L13,4.5 L0,9 L0,0" fill="#212930" stroke="#212930" stroke-width="1"></path></marker><marker id="SvgjsMarker1599" markerWidth="13" markerHeight="9" refX="9.5" refY="4.5" viewBox="0 0 13 9" orient="auto" markerUnits="userSpaceOnUse" stroke-dasharray="0,0"><path id="SvgjsPath1600" d="M0,0 L13,4.5 L0,9 L0,0" fill="#212930" stroke="#212930" stroke-width="1"></path></marker><marker id="SvgjsMarker1615" markerWidth="13" markerHeight="9" refX="9.5" refY="4.5" viewBox="0 0 13 9" orient="auto" markerUnits="userSpaceOnUse" stroke-dasharray="0,0"><path id="SvgjsPath1616" d="M0,0 L13,4.5 L0,9 L0,0" fill="#212930" stroke="#212930" stroke-width="1"></path></marker><marker id="SvgjsMarker1625" markerWidth="13" markerHeight="9" refX="9.5" refY="4.5" viewBox="0 0 13 9" orient="auto" markerUnits="userSpaceOnUse" stroke-dasharray="0,0"><path id="SvgjsPath1626" d="M0,0 L13,4.5 L0,9 L0,0" fill="#212930" stroke="#212930" stroke-width="1"></path></marker><marker id="SvgjsMarker1629" markerWidth="13" markerHeight="9" refX="9.5" refY="4.5" viewBox="0 0 13 9" orient="auto" markerUnits="userSpaceOnUse" stroke-dasharray="0,0"><path id="SvgjsPath1630" d="M0,0 L13,4.5 L0,9 L0,0" fill="#212930" stroke="#212930" stroke-width="1"></path></marker><marker id="SvgjsMarker1633" markerWidth="13" markerHeight="9" refX="9.5" refY="4.5" viewBox="0 0 13 9" orient="auto" markerUnits="userSpaceOnUse" stroke-dasharray="0,0"><path id="SvgjsPath1634" d="M0,0 L13,4.5 L0,9 L0,0" fill="#212930" stroke="#212930" stroke-width="1"></path></marker><marker id="SvgjsMarker1643" markerWidth="13" markerHeight="9" refX="9.5" refY="4.5" viewBox="0 0 13 9" orient="auto" markerUnits="userSpaceOnUse" stroke-dasharray="0,0"><path id="SvgjsPath1644" d="M0,0 L13,4.5 L0,9 L0,0" fill="#212930" stroke="#212930" stroke-width="1"></path></marker><marker id="SvgjsMarker1659" markerWidth="13" markerHeight="9" refX="9.5" refY="4.5" viewBox="0 0 13 9" orient="auto" markerUnits="userSpaceOnUse" stroke-dasharray="0,0"><path id="SvgjsPath1660" d="M0,0 L13,4.5 L0,9 L0,0" fill="#212930" stroke="#212930" stroke-width="1"></path></marker><marker id="SvgjsMarker1663" markerWidth="13" markerHeight="9" refX="9.5" refY="4.5" viewBox="0 0 13 9" orient="auto" markerUnits="userSpaceOnUse" stroke-dasharray="0,0"><path id="SvgjsPath1664" d="M0,0 L13,4.5 L0,9 L0,0" fill="#212930" stroke="#212930" stroke-width="1"></path></marker><marker id="SvgjsMarker1667" markerWidth="13" markerHeight="9" refX="9.5" refY="4.5" viewBox="0 0 13 9" orient="auto" markerUnits="userSpaceOnUse" stroke-dasharray="0,0"><path id="SvgjsPath1668" d="M0,0 L13,4.5 L0,9 L0,0" fill="#212930" stroke="#212930" stroke-width="1"></path></marker><marker id="SvgjsMarker1707" markerWidth="13" markerHeight="9" refX="9.5" refY="4.5" viewBox="0 0 13 9" orient="auto" markerUnits="userSpaceOnUse" stroke-dasharray="0,0"><path id="SvgjsPath1708" d="M0,0 L13,4.5 L0,9 L0,0" fill="#212930" stroke="#212930" stroke-width="1"></path></marker><marker id="SvgjsMarker1711" markerWidth="13" markerHeight="9" refX="9.5" refY="4.5" viewBox="0 0 13 9" orient="auto" markerUnits="userSpaceOnUse" stroke-dasharray="0,0"><path id="SvgjsPath1712" d="M0,0 L13,4.5 L0,9 L0,0" fill="#212930" stroke="#212930" stroke-width="1"></path></marker><marker id="SvgjsMarker1715" markerWidth="13" markerHeight="9" refX="9.5" refY="4.5" viewBox="0 0 13 9" orient="auto" markerUnits="userSpaceOnUse" stroke-dasharray="0,0"><path id="SvgjsPath1716" d="M0,0 L13,4.5 L0,9 L0,0" fill="#212930" stroke="#212930" stroke-width="1"></path></marker><marker id="SvgjsMarker1719" markerWidth="13" markerHeight="9" refX="9.5" refY="4.5" viewBox="0 0 13 9" orient="auto" markerUnits="userSpaceOnUse" stroke-dasharray="0,0"><path id="SvgjsPath1720" d="M0,0 L13,4.5 L0,9 L0,0" fill="#212930" stroke="#212930" stroke-width="1"></path></marker><marker id="SvgjsMarker1723" markerWidth="13" markerHeight="9" refX="9.5" refY="4.5" viewBox="0 0 13 9" orient="auto" markerUnits="userSpaceOnUse" stroke-dasharray="0,0"><path id="SvgjsPath1724" d="M0,0 L13,4.5 L0,9 L0,0" fill="#212930" stroke="#212930" stroke-width="1"></path></marker><marker id="SvgjsMarker1727" markerWidth="13" markerHeight="9" refX="9.5" refY="4.5" viewBox="0 0 13 9" orient="auto" markerUnits="userSpaceOnUse" stroke-dasharray="0,0"><path id="SvgjsPath1728" d="M0,0 L13,4.5 L0,9 L0,0" fill="#212930" stroke="#212930" stroke-width="1"></path></marker><marker id="SvgjsMarker1749" markerWidth="13" markerHeight="9" refX="9.5" refY="4.5" viewBox="0 0 13 9" orient="auto" markerUnits="userSpaceOnUse" stroke-dasharray="0,0"><path id="SvgjsPath1750" d="M0,0 L13,4.5 L0,9 L0,0" fill="#212930" stroke="#212930" stroke-width="1"></path></marker><marker id="SvgjsMarker1753" markerWidth="13" markerHeight="9" refX="9.5" refY="4.5" viewBox="0 0 13 9" orient="auto" markerUnits="userSpaceOnUse" stroke-dasharray="0,0"><path id="SvgjsPath1754" d="M0,0 L13,4.5 L0,9 L0,0" fill="#212930" stroke="#212930" stroke-width="1"></path></marker><marker id="SvgjsMarker1757" markerWidth="13" markerHeight="9" refX="9.5" refY="4.5" viewBox="0 0 13 9" orient="auto" markerUnits="userSpaceOnUse" stroke-dasharray="0,0"><path id="SvgjsPath1758" d="M0,0 L13,4.5 L0,9 L0,0" fill="#212930" stroke="#212930" stroke-width="1"></path></marker><marker id="SvgjsMarker1761" markerWidth="13" markerHeight="9" refX="9.5" refY="4.5" viewBox="0 0 13 9" orient="auto" markerUnits="userSpaceOnUse" stroke-dasharray="0,0"><path id="SvgjsPath1762" d="M0,0 L13,4.5 L0,9 L0,0" fill="#212930" stroke="#212930" stroke-width="1"></path></marker><pattern patternUnits="userSpaceOnUse" id="wpspattern_mark_0" width="300" height="300"><text x="150" y="100" fill="#0000004d" font-size="18" transform="rotate(-45, 150, 150)" style="dominant-baseline: middle; text-anchor: middle;"></text></pattern></defs><rect id="svgbackgroundid" width="1023" height="572.25" fill="transparent"></rect><rect id="SvgjsRect1515" width="1023" height="572.25" fill="url(#pattern_mark_0)"></rect><rect id="SvgjsRect1516" width="1023" height="572.25" fill="url(#pattern_mark_1)"></rect><g id="SvgjsG1517" transform="translate(119.33254973222958,25)"><path id="SvgjsPath1518" d="M 0 4Q 0 0 4 0L 131.163 0Q 135.163 0 135.163 4L 135.163 41.782Q 135.163 45.782 131.163 45.782L 4 45.782Q 0 45.782 0 41.782Z" stroke="rgba(39,74,99,1)" stroke-width="1.5" fill-opacity="1" fill="#d9f1fd"></path><g id="SvgjsG1519"><text id="SvgjsText1520" font-family="思源黑体" text-anchor="middle" font-size="16px" width="116px" fill="#274a63" font-weight="700" align="middle" lineHeight="125%" anchor="middle" family="思源黑体" size="16px" weight="700" font-style="" opacity="1" y="8.890999999999998" transform="rotate(0)"><tspan id="SvgjsTspan1521" dy="20" x="68"><tspan id="SvgjsTspan1522" style="">蚀刻-首件</tspan></tspan></text></g></g><g id="SvgjsG1523"><path id="SvgjsPath1524" d="M186.91407789860295 71.53165584415586L186.91407789860295 83.49878246753246L186.91407789860295 83.49878246753246L186.91407789860295 93.5159090909091" stroke="#212930" stroke-width="1.5" fill="none" marker-end="url(#SvgjsMarker1525)"></path></g><g id="SvgjsG1527" transform="translate(119.33254973222958,96.2159090909091)"><path id="SvgjsPath1528" d="M 0 4Q 0 0 4 0L 131.163 0Q 135.163 0 135.163 4L 135.163 41.782Q 135.163 45.782 131.163 45.782L 4 45.782Q 0 45.782 0 41.782Z" stroke="rgba(39,74,99,1)" stroke-width="1.5" fill-opacity="1" fill="#d9f1fd"></path><g id="SvgjsG1529"><text id="SvgjsText1530" font-family="思源黑体" text-anchor="middle" font-size="16px" width="116px" fill="#274a63" font-weight="700" align="middle" lineHeight="125%" anchor="middle" family="思源黑体" size="16px" weight="700" font-style="" opacity="1" y="8.890999999999998" transform="rotate(0)"><tspan id="SvgjsTspan1531" dy="20" x="68"><tspan id="SvgjsTspan1532" style="">首件确认-IPQC</tspan></tspan></text></g></g><g id="SvgjsG1533"><path id="SvgjsPath1534" d="M186.91407789860295 142.74756493506493L186.91407789860295 154.7146915584416L186.91407789860295 154.7146915584416L186.91407789860295 164.7318181818182" stroke="#212930" stroke-width="1.5" fill="none" marker-end="url(#SvgjsMarker1535)"></path></g><g id="SvgjsG1537" transform="translate(119.33254973222958,167.4318181818182)"><path id="SvgjsPath1538" d="M 0 4Q 0 0 4 0L 131.163 0Q 135.163 0 135.163 4L 135.163 41.782Q 135.163 45.782 131.163 45.782L 4 45.782Q 0 45.782 0 41.782Z" stroke="rgba(39,74,99,1)" stroke-width="1.5" fill-opacity="1" fill="#d9f1fd"></path><g id="SvgjsG1539"><text id="SvgjsText1540" font-family="思源黑体" text-anchor="middle" font-size="16px" width="116px" fill="#274a63" font-weight="700" align="middle" lineHeight="125%" anchor="middle" family="思源黑体" size="16px" weight="700" font-style="" opacity="1" y="8.890999999999998" transform="rotate(0)"><tspan id="SvgjsTspan1541" dy="20" x="68"><tspan id="SvgjsTspan1542" style="">首件合格</tspan></tspan></text></g></g><g id="SvgjsG1543"><path id="SvgjsPath1544" d="M186.91407789860295 213.96347402597405L186.91407789860295 225.9306006493507L186.91407789860295 225.9306006493507L186.91407789860295 235.94772727272732" stroke="#212930" stroke-width="1.5" fill="none" marker-end="url(#SvgjsMarker1545)"></path></g><g id="SvgjsG1547" transform="translate(119.33254973222958,238.6477272727273)"><path id="SvgjsPath1548" d="M 0 4Q 0 0 4 0L 131.163 0Q 135.163 0 135.163 4L 135.163 41.782Q 135.163 45.782 131.163 45.782L 4 45.782Q 0 45.782 0 41.782Z" stroke="rgba(39,74,99,1)" stroke-width="1.5" fill-opacity="1" fill="#d9f1fd"></path><g id="SvgjsG1549"><text id="SvgjsText1550" font-family="思源黑体" text-anchor="middle" font-size="16px" width="116px" fill="#274a63" font-weight="700" align="middle" lineHeight="125%" anchor="middle" family="思源黑体" size="16px" weight="700" font-style="" opacity="1" y="8.890999999999998" transform="rotate(0)"><tspan id="SvgjsTspan1551" dy="20" x="68"><tspan id="SvgjsTspan1552" style="">批量蚀刻</tspan></tspan></text></g></g><g id="SvgjsG1553"><path id="SvgjsPath1554" d="M186.91407789860295 285.1793831168832L186.91407789860298 301.38555194805195L92.58152816637342 301.38555194805195L92.5815281663734 315.6417207792208" stroke="#212930" stroke-width="1.5" fill="none" marker-end="url(#SvgjsMarker1555)"></path></g><g id="SvgjsG1557" transform="translate(25,318.3417207792208)"><path id="SvgjsPath1558" d="M 0 4Q 0 0 4 0L 131.163 0Q 135.163 0 135.163 4L 135.163 41.782Q 135.163 45.782 131.163 45.782L 4 45.782Q 0 45.782 0 41.782Z" stroke="rgba(39,74,99,1)" stroke-width="1.5" fill-opacity="1" fill="#d9f1fd"></path><g id="SvgjsG1559"><text id="SvgjsText1560" font-family="思源黑体" text-anchor="middle" font-size="16px" width="116px" fill="#274a63" font-weight="700" align="middle" lineHeight="125%" anchor="middle" family="思源黑体" size="16px" weight="700" font-style="" opacity="1" y="8.890999999999998" transform="rotate(0)"><tspan id="SvgjsTspan1561" dy="20" x="68"><tspan id="SvgjsTspan1562" style="">接板、收卷</tspan></tspan></text></g></g><g id="SvgjsG1563"><path id="SvgjsPath1564" d="M186.91407789860295 285.1793831168832L186.91407789860298 301.38555194805195L269.98303960310363 301.38555194805195L269.98303960310363 315.6417207792208" stroke="#212930" stroke-width="1.5" fill="none" marker-end="url(#SvgjsMarker1565)"></path></g><g id="SvgjsG1567" transform="translate(202.40151143673023,318.3417207792208)"><path id="SvgjsPath1568" d="M 0 4Q 0 0 4 0L 131.163 0Q 135.163 0 135.163 4L 135.163 41.782Q 135.163 45.782 131.163 45.782L 4 45.782Q 0 45.782 0 41.782Z" stroke="rgba(39,74,99,1)" stroke-width="1.5" fill-opacity="1" fill="#d9f1fd"></path><g id="SvgjsG1569"><text id="SvgjsText1570" font-family="思源黑体" text-anchor="middle" font-size="16px" width="116px" fill="#274a63" font-weight="700" align="middle" lineHeight="125%" anchor="middle" family="思源黑体" size="16px" weight="700" font-style="" opacity="1" y="8.890999999999998" transform="rotate(0)"><tspan id="SvgjsTspan1571" dy="20" x="68"><tspan id="SvgjsTspan1572" style="">接板--裁切单片</tspan></tspan></text></g></g><g id="SvgjsG1573"><path id="SvgjsPath1574" d="M269.98303960310363 364.87337662337666L269.98303960310363 381.0795454545455L186.91407789860298 381.0795454545455L186.91407789860295 395.3357142857142" stroke="#212930" stroke-width="1.5" fill="none" marker-end="url(#SvgjsMarker1575)"></path></g><g id="SvgjsG1577" transform="translate(119.33254973222958,398.0357142857142)"><path id="SvgjsPath1578" d="M 0 4Q 0 0 4 0L 131.163 0Q 135.163 0 135.163 4L 135.163 41.782Q 135.163 45.782 131.163 45.782L 4 45.782Q 0 45.782 0 41.782Z" stroke="rgba(39,74,99,1)" stroke-width="1.5" fill-opacity="1" fill="#d9f1fd"></path><g id="SvgjsG1579"><text id="SvgjsText1580" font-family="思源黑体" text-anchor="middle" font-size="16px" width="116px" fill="#274a63" font-weight="700" align="middle" lineHeight="125%" anchor="middle" family="思源黑体" size="16px" weight="700" font-style="" opacity="1" y="8.890999999999998" transform="rotate(0)"><tspan id="SvgjsTspan1581" dy="20" x="68"><tspan id="SvgjsTspan1582" style="">电阻全检</tspan></tspan></text></g></g><g id="SvgjsG1583"><path id="SvgjsPath1584" d="M92.5815281663734 364.87337662337666L92.58152816637342 381.0795454545455L186.91407789860298 381.0795454545455L186.91407789860295 395.3357142857142" stroke="#212930" stroke-width="1.5" fill="none" marker-end="url(#SvgjsMarker1585)"></path></g><g id="SvgjsG1587"><path id="SvgjsPath1588" d="M186.91407789860295 444.56737012987L186.91407789860295 458.2301136363635L186.91407789860295 458.2301136363635L186.91407789860295 469.94285714285706" stroke="#212930" stroke-width="1.5" fill="none" marker-end="url(#SvgjsMarker1589)"></path></g><g id="SvgjsG1591" transform="translate(119.33254973222958,472.6428571428571)"><path id="SvgjsPath1592" d="M 0 4Q 0 0 4 0L 131.163 0Q 135.163 0 135.163 4L 135.163 41.782Q 135.163 45.782 131.163 45.782L 4 45.782Q 0 45.782 0 41.782Z" stroke="rgba(39,74,99,1)" stroke-width="1.5" fill-opacity="1" fill="#d9f1fd"></path><g id="SvgjsG1593"><text id="SvgjsText1594" font-family="思源黑体" text-anchor="middle" font-size="16px" width="116px" fill="#274a63" font-weight="700" align="middle" lineHeight="125%" anchor="middle" family="思源黑体" size="16px" weight="700" font-style="" opacity="1" y="8.890999999999998" transform="rotate(0)"><tspan id="SvgjsTspan1595" dy="20" x="68"><tspan id="SvgjsTspan1596" style="">电阻全检OK</tspan></tspan></text></g></g><g id="SvgjsG1597"><path id="SvgjsPath1598" d="M255.2456060649764 119.10673701298703L288.7611434807273 119.10673701298697L288.7611434807273 97.91152597402595L320.32668089647814 97.91152597402595" stroke="#212930" stroke-width="1.5" fill="none" marker-end="url(#SvgjsMarker1599)"></path></g><g id="SvgjsG1601" transform="translate(323.0266808964781,83.49878246753246)"><path id="SvgjsPath1602" d="M 0 3.9999999999999996Q 0 0 4 0L 95.688 0Q 99.688 0 99.688 3.9999999999999996L 99.688 24.825Q 99.688 28.825 95.688 28.825L 4 28.825Q 0 28.825 0 24.825Z" stroke="rgba(39,74,99,1)" stroke-width="1.5" fill-opacity="1" fill="#e1f6d9"></path><g id="SvgjsG1603"><text id="SvgjsText1604" font-family="思源黑体" text-anchor="middle" font-size="16px" width="80px" fill="#274a63" font-weight="700" align="middle" lineHeight="125%" anchor="middle" family="思源黑体" size="16px" weight="700" font-style="" opacity="1" y="0.41249999999999964" transform="rotate(0)"><tspan id="SvgjsTspan1605" dy="20" x="50"><tspan id="SvgjsTspan1606" style="">电阻确认</tspan></tspan></text></g></g><g id="SvgjsG1607" transform="translate(323.0266808964781,125.88920454545456)"><path id="SvgjsPath1608" d="M 0 3.9999999999999996Q 0 0 4 0L 95.688 0Q 99.688 0 99.688 3.9999999999999996L 99.688 24.825Q 99.688 28.825 95.688 28.825L 4 28.825Q 0 28.825 0 24.825Z" stroke="rgba(39,74,99,1)" stroke-width="1.5" fill-opacity="1" fill="#e1f6d9"></path><g id="SvgjsG1609"><text id="SvgjsText1610" font-family="思源黑体" text-anchor="middle" font-size="16px" width="80px" fill="#274a63" font-weight="700" align="middle" lineHeight="125%" anchor="middle" family="思源黑体" size="16px" weight="700" font-style="" opacity="1" y="0.41249999999999964" transform="rotate(0)"><tspan id="SvgjsTspan1611" dy="20" x="50"><tspan id="SvgjsTspan1612" style="">电阻确认</tspan></tspan></text></g></g><g id="SvgjsG1613"><path id="SvgjsPath1614" d="M255.2456060649764 119.10673701298703L288.7611434807273 119.10673701298697L288.7611434807273 140.30194805194805L320.32668089647814 140.30194805194805" stroke="#212930" stroke-width="1.5" fill="none" marker-end="url(#SvgjsMarker1615)"></path></g><g id="SvgjsG1617" transform="translate(482.41487111444417,104.69399350649348)"><path id="SvgjsPath1618" d="M 0 3.9999999999999996Q 0 0 4 0L 95.688 0Q 99.688 0 99.688 3.9999999999999996L 99.688 24.825Q 99.688 28.825 95.688 28.825L 4 28.825Q 0 28.825 0 24.825Z" stroke="rgba(39,74,99,1)" stroke-width="1.5" fill-opacity="1" fill="#f2e3f8"></path><g id="SvgjsG1619"><text id="SvgjsText1620" font-family="思源黑体" text-anchor="middle" font-size="16px" width="80px" fill="#274a63" font-weight="700" align="middle" lineHeight="125%" anchor="middle" family="思源黑体" size="16px" weight="700" font-style="" opacity="1" y="0.41249999999999964" transform="rotate(0)"><tspan id="SvgjsTspan1621" dy="20" x="50"><tspan id="SvgjsTspan1622" style="">NG</tspan></tspan></text></g></g><g id="SvgjsG1623"><path id="SvgjsPath1624" d="M423.46504802561367 97.91152597402595L452.56495957002886 97.91152597402595L452.56495957002886 119.10673701298697L479.7148711144442 119.10673701298697" stroke="#212930" stroke-width="1.5" fill="none" marker-end="url(#SvgjsMarker1625)"></path></g><g id="SvgjsG1627"><path id="SvgjsPath1628" d="M423.46504802561367 140.30194805194805L452.56495957002886 140.30194805194805L452.56495957002886 119.10673701298697L479.7148711144442 119.10673701298697" stroke="#212930" stroke-width="1.5" fill="none" marker-end="url(#SvgjsMarker1629)"></path></g><g id="SvgjsG1631"><path id="SvgjsPath1632" d="M532.2590546790119 103.94399350649348L532.2590546790119 47.89082792207793L257.1956060649764 47.89082792207793" stroke="#212930" stroke-width="1.5" fill="none" marker-end="url(#SvgjsMarker1633)"></path></g><g id="SvgjsG1635" transform="translate(406.10032017075775,247.12581168831173)"><path id="SvgjsPath1636" d="M 0 3.9999999999999996Q 0 0 4 0L 151.763 0Q 155.763 0 155.763 3.9999999999999996L 155.763 24.825Q 155.763 28.825 151.763 28.825L 4 28.825Q 0 28.825 0 24.825Z" stroke="rgba(39,74,99,1)" stroke-width="1.5" fill-opacity="1" fill="#e1f6d9"></path><g id="SvgjsG1637"><text id="SvgjsText1638" font-family="思源黑体" text-anchor="middle" font-size="16px" width="136px" fill="#274a63" font-weight="700" align="middle" lineHeight="125%" anchor="middle" family="思源黑体" size="16px" weight="700" font-style="" opacity="1" y="0.41249999999999964" transform="rotate(0)"><tspan id="SvgjsTspan1639" dy="20" x="78"><tspan id="SvgjsTspan1640" style="">中未件电阻确认</tspan></tspan></text></g></g><g id="SvgjsG1641"><path id="SvgjsPath1642" d="M255.2456060649764 261.5385551948052L330.2979631178671 261.5385551948052L330.2979631178671 261.5385551948052L403.40032017075777 261.5385551948052" stroke="#212930" stroke-width="1.5" fill="none" marker-end="url(#SvgjsMarker1643)"></path></g><g id="SvgjsG1645" transform="translate(406.10032017075775,406.5137987012988)"><path id="SvgjsPath1646" d="M 0 3.9999999999999996Q 0 0 4 0L 130.995 0Q 134.995 0 134.995 3.9999999999999996L 134.995 24.825Q 134.995 28.825 130.995 28.825L 4 28.825Q 0 28.825 0 24.825Z" stroke="rgba(39,74,99,1)" stroke-width="1.5" fill-opacity="1" fill="#f2e3f8"></path><g id="SvgjsG1647"><text id="SvgjsText1648" font-family="思源黑体" text-anchor="middle" font-size="16px" width="115px" fill="#274a63" font-weight="700" align="middle" lineHeight="125%" anchor="middle" family="思源黑体" size="16px" weight="700" font-style="" opacity="1" y="0.41249999999999964" transform="rotate(0)"><tspan id="SvgjsTspan1649" dy="20" x="67.5"><tspan id="SvgjsTspan1650" style="">电阻NG</tspan></tspan></text></g></g><g id="SvgjsG1651" transform="translate(406.10032017075775,481.1209415584416)"><path id="SvgjsPath1652" d="M 0 3.9999999999999996Q 0 0 4 0L 130.995 0Q 134.995 0 134.995 3.9999999999999996L 134.995 24.825Q 134.995 28.825 130.995 28.825L 4 28.825Q 0 28.825 0 24.825Z" stroke="rgba(39,74,99,1)" stroke-width="1.5" fill-opacity="1" fill="#f2e3f8"></path><g id="SvgjsG1653"><text id="SvgjsText1654" font-family="思源黑体" text-anchor="middle" font-size="16px" width="115px" fill="#274a63" font-weight="700" align="middle" lineHeight="125%" anchor="middle" family="思源黑体" size="16px" weight="700" font-style="" opacity="1" y="0.41249999999999964" transform="rotate(0)"><tspan id="SvgjsTspan1655" dy="20" x="67.5"><tspan id="SvgjsTspan1656" style="">报废-报工</tspan></tspan></text></g></g><g id="SvgjsG1657"><path id="SvgjsPath1658" d="M255.2456060649764 420.92654220779207L330.2979631178671 420.92654220779207L330.2979631178671 420.9265422077923L403.40032017075777 420.9265422077923" stroke="#212930" stroke-width="1.5" fill="none" marker-end="url(#SvgjsMarker1659)"></path></g><g id="SvgjsG1661"><path id="SvgjsPath1662" d="M255.2456060649764 495.53368506493496L330.2979631178671 495.53368506493496L330.2979631178671 495.53368506493507L403.40032017075777 495.53368506493507" stroke="#212930" stroke-width="1.5" fill="none" marker-end="url(#SvgjsMarker1663)"></path></g><g id="SvgjsG1665"><path id="SvgjsPath1666" d="M473.5976520811099 436.0892857142858L473.5976520811099 458.23011363636374L473.5976520811099 458.23011363636374L473.5976520811099 478.42094155844154" stroke="#212930" stroke-width="1.5" fill="none" marker-end="url(#SvgjsMarker1667)"></path></g><g id="SvgjsG1669" transform="translate(621.0533617929563,96.2159090909091)"><path id="SvgjsPath1670" d="M 0 4Q 0 0 4 0L 147.609 0Q 151.609 0 151.609 4L 151.609 41.782Q 151.609 45.782 147.609 45.782L 4 45.782Q 0 45.782 0 41.782Z" stroke="rgba(39,74,99,1)" stroke-width="1.5" fill-opacity="1" fill="#d9f1fd"></path><g id="SvgjsG1671"><text id="SvgjsText1672" font-family="思源黑体" text-anchor="middle" font-size="16px" width="132px" fill="#274a63" font-weight="700" align="middle" lineHeight="125%" anchor="middle" family="思源黑体" size="16px" weight="700" font-style="" opacity="1" y="8.890999999999998" transform="rotate(0)"><tspan id="SvgjsTspan1673" dy="20" x="76"><tspan id="SvgjsTspan1674" style="">打卡板出货</tspan></tspan></text></g></g><g id="SvgjsG1675" transform="translate(621.0533617929563,167.4318181818182)"><path id="SvgjsPath1676" d="M 0 4Q 0 0 4 0L 147.609 0Q 151.609 0 151.609 4L 151.609 41.782Q 151.609 45.782 147.609 45.782L 4 45.782Q 0 45.782 0 41.782Z" stroke="rgba(39,74,99,1)" stroke-width="1.5" fill-opacity="1" fill="#d9f1fd"></path><g id="SvgjsG1677"><text id="SvgjsText1678" font-family="思源黑体" text-anchor="middle" font-size="16px" width="132px" fill="#274a63" font-weight="700" align="middle" lineHeight="125%" anchor="middle" family="思源黑体" size="16px" weight="700" font-style="" opacity="1" y="8.890999999999998" transform="rotate(0)"><tspan id="SvgjsTspan1679" dy="20" x="76"><tspan id="SvgjsTspan1680" style="">点数包装</tspan></tspan></text></g></g><g id="SvgjsG1681" transform="translate(621.0533617929563,238.6477272727273)"><path id="SvgjsPath1682" d="M 0 4Q 0 0 4 0L 147.609 0Q 151.609 0 151.609 4L 151.609 41.782Q 151.609 45.782 147.609 45.782L 4 45.782Q 0 45.782 0 41.782Z" stroke="rgba(39,74,99,1)" stroke-width="1.5" fill-opacity="1" fill="#d9f1fd"></path><g id="SvgjsG1683"><text id="SvgjsText1684" font-family="思源黑体" text-anchor="middle" font-size="16px" width="132px" fill="#274a63" font-weight="700" align="middle" lineHeight="125%" anchor="middle" family="思源黑体" size="16px" weight="700" font-style="" opacity="1" y="8.890999999999998" transform="rotate(0)"><tspan id="SvgjsTspan1685" dy="20" x="76"><tspan id="SvgjsTspan1686" style="">OQC抽检合格</tspan></tspan></text></g></g><g id="SvgjsG1687" transform="translate(621.0533617929563,318.3417207792208)"><path id="SvgjsPath1688" d="M 0 4Q 0 0 4 0L 147.609 0Q 151.609 0 151.609 4L 151.609 41.782Q 151.609 45.782 147.609 45.782L 4 45.782Q 0 45.782 0 41.782Z" stroke="rgba(39,74,99,1)" stroke-width="1.5" fill-opacity="1" fill="#d9f1fd"></path><g id="SvgjsG1689"><text id="SvgjsText1690" font-family="思源黑体" text-anchor="middle" font-size="16px" width="132px" fill="#274a63" font-weight="700" align="middle" lineHeight="125%" anchor="middle" family="思源黑体" size="16px" weight="700" font-style="" opacity="1" y="8.890999999999998" transform="rotate(0)"><tspan id="SvgjsTspan1691" dy="20" x="76"><tspan id="SvgjsTspan1692" style="">OQC抽检</tspan></tspan></text></g></g><g id="SvgjsG1693" transform="translate(621.0533617929563,398.0357142857142)"><path id="SvgjsPath1694" d="M 0 4Q 0 0 4 0L 147.609 0Q 151.609 0 151.609 4L 151.609 41.782Q 151.609 45.782 147.609 45.782L 4 45.782Q 0 45.782 0 41.782Z" stroke="rgba(39,74,99,1)" stroke-width="1.5" fill-opacity="1" fill="#d9f1fd"></path><g id="SvgjsG1695"><text id="SvgjsText1696" font-family="思源黑体" text-anchor="middle" font-size="16px" width="132px" fill="#274a63" font-weight="700" align="middle" lineHeight="125%" anchor="middle" family="思源黑体" size="16px" weight="700" font-style="" opacity="1" y="8.890999999999998" transform="rotate(0)"><tspan id="SvgjsTspan1697" dy="20" x="76"><tspan id="SvgjsTspan1698" style="">外观检验OK</tspan></tspan></text></g></g><g id="SvgjsG1699" transform="translate(621.0533617929563,472.6428571428571)"><path id="SvgjsPath1700" d="M 0 4Q 0 0 4 0L 147.609 0Q 151.609 0 151.609 4L 151.609 41.782Q 151.609 45.782 147.609 45.782L 4 45.782Q 0 45.782 0 41.782Z" stroke="rgba(39,74,99,1)" stroke-width="1.5" fill-opacity="1" fill="#d9f1fd"></path><g id="SvgjsG1701"><text id="SvgjsText1702" font-family="思源黑体" text-anchor="middle" font-size="16px" width="132px" fill="#274a63" font-weight="700" align="middle" lineHeight="125%" anchor="middle" family="思源黑体" size="16px" weight="700" font-style="" opacity="1" y="8.890999999999998" transform="rotate(0)"><tspan id="SvgjsTspan1703" dy="20" x="76"><tspan id="SvgjsTspan1704" style="">外观检验</tspan></tspan></text></g></g><g id="SvgjsG1705"><path id="SvgjsPath1706" d="M186.91407789860295 519.1745129870129L186.91407789860295 535.3806818181818L696.8580576307363 535.3806818181818L696.8580576307364 521.124512987013" stroke="#212930" stroke-width="1.5" fill="none" marker-end="url(#SvgjsMarker1707)"></path></g><g id="SvgjsG1709"><path id="SvgjsPath1710" d="M696.8580576307364 471.8928571428571L696.8580576307364 458.2301136363635L696.8580576307364 458.2301136363635L696.8580576307364 446.5173701298701" stroke="#212930" stroke-width="1.5" fill="none" marker-end="url(#SvgjsMarker1711)"></path></g><g id="SvgjsG1713"><path id="SvgjsPath1714" d="M696.8580576307364 397.2857142857142L696.8580576307364 381.0795454545455L696.8580576307364 381.0795454545455L696.8580576307364 366.82337662337665" stroke="#212930" stroke-width="1.5" fill="none" marker-end="url(#SvgjsMarker1715)"></path></g><g id="SvgjsG1717"><path id="SvgjsPath1718" d="M696.8580576307364 317.5917207792208L696.8580576307364 301.385551948052L696.8580576307364 301.385551948052L696.8580576307364 287.12938311688316" stroke="#212930" stroke-width="1.5" fill="none" marker-end="url(#SvgjsMarker1719)"></path></g><g id="SvgjsG1721"><path id="SvgjsPath1722" d="M696.8580576307364 237.8977272727273L696.8580576307364 225.9306006493507L696.8580576307364 225.9306006493507L696.8580576307364 215.91347402597404" stroke="#212930" stroke-width="1.5" fill="none" marker-end="url(#SvgjsMarker1723)"></path></g><g id="SvgjsG1725"><path id="SvgjsPath1726" d="M696.8580576307364 166.6818181818182L696.8580576307364 154.7146915584416L696.8580576307364 154.7146915584416L696.8580576307364 144.69756493506492" stroke="#212930" stroke-width="1.5" fill="none" marker-end="url(#SvgjsMarker1727)"></path></g><g id="SvgjsG1729" transform="translate(831.8527214514407,326.8198051948052)"><path id="SvgjsPath1730" d="M 0 3.9999999999999996Q 0 0 4 0L 130.995 0Q 134.995 0 134.995 3.9999999999999996L 134.995 24.825Q 134.995 28.825 130.995 28.825L 4 28.825Q 0 28.825 0 24.825Z" stroke="rgba(39,74,99,1)" stroke-width="1.5" fill-opacity="1" fill="#f2e3f8"></path><g id="SvgjsG1731"><text id="SvgjsText1732" font-family="思源黑体" text-anchor="middle" font-size="16px" width="115px" fill="#274a63" font-weight="700" align="middle" lineHeight="125%" anchor="middle" family="思源黑体" size="16px" weight="700" font-style="" opacity="1" y="0.41249999999999964" transform="rotate(0)"><tspan id="SvgjsTspan1733" dy="20" x="67.5"><tspan id="SvgjsTspan1734" style="">OQC抽检NG</tspan></tspan></text></g></g><g id="SvgjsG1735" transform="translate(831.8527214514407,175.9099025974026)"><path id="SvgjsPath1736" d="M 0 3.9999999999999996Q 0 0 4 0L 130.995 0Q 134.995 0 134.995 3.9999999999999996L 134.995 24.825Q 134.995 28.825 130.995 28.825L 4 28.825Q 0 28.825 0 24.825Z" stroke="rgba(39,74,99,1)" stroke-width="1.5" fill-opacity="1" fill="#d9f1fd"></path><g id="SvgjsG1737"><text id="SvgjsText1738" font-family="思源黑体" text-anchor="middle" font-size="16px" width="115px" fill="#274a63" font-weight="700" align="middle" lineHeight="125%" anchor="middle" family="思源黑体" size="16px" weight="700" font-style="" opacity="1" y="0.41249999999999964" transform="rotate(0)"><tspan id="SvgjsTspan1739" dy="20" x="67.5"><tspan id="SvgjsTspan1740" style="">完成出货报告</tspan></tspan></text></g></g><g id="SvgjsG1741" transform="translate(831.8527214514407,406.5137987012988)"><path id="SvgjsPath1742" d="M 0 3.9999999999999996Q 0 0 4 0L 130.995 0Q 134.995 0 134.995 3.9999999999999996L 134.995 24.825Q 134.995 28.825 130.995 28.825L 4 28.825Q 0 28.825 0 24.825Z" stroke="rgba(39,74,99,1)" stroke-width="1.5" fill-opacity="1" fill="#d9f1fd"></path><g id="SvgjsG1743"><text id="SvgjsText1744" font-family="思源黑体" text-anchor="middle" font-size="16px" width="115px" fill="#274a63" font-weight="700" align="middle" lineHeight="125%" anchor="middle" family="思源黑体" size="16px" weight="700" font-style="" opacity="1" y="0.41249999999999964" transform="rotate(0)"><tspan id="SvgjsTspan1745" dy="20" x="67.5"><tspan id="SvgjsTspan1746" style="">外观检验NG</tspan></tspan></text></g></g><g id="SvgjsG1747"><path id="SvgjsPath1748" d="M773.4127534685166 495.53368506493496L899.350053361793 495.53368506493507L899.3500533617929 438.0392857142858" stroke="#212930" stroke-width="1.5" fill="none" marker-end="url(#SvgjsMarker1749)"></path></g><g id="SvgjsG1751"><path id="SvgjsPath1752" d="M773.4127534685166 341.2325487012987L802.2577374599787 341.2325487012987L802.2577374599787 341.2325487012987L829.1527214514407 341.2325487012987" stroke="#212930" stroke-width="1.5" fill="none" marker-end="url(#SvgjsMarker1753)"></path></g><g id="SvgjsG1755"><path id="SvgjsPath1756" d="M967.5973852721452 341.2325487012987L998 341.23254870129875L998 535.3806818181818L696.8580576307363 535.3806818181818L696.8580576307364 521.124512987013" stroke="#212930" stroke-width="1.5" fill="none" marker-end="url(#SvgjsMarker1757)"></path></g><g id="SvgjsG1759"><path id="SvgjsPath1760" d="M967.5973852721452 420.9265422077923L981.3852721451441 420.9265422077922L981.3852721451441 547.25L473.59765208110997 547.25L473.5976520811099 512.6464285714286" stroke="#212930" stroke-width="1.5" fill="none" marker-end="url(#SvgjsMarker1761)"></path></g><g id="SvgjsG1763"></g><rect id="SvgjsRect1764" width="1023" height="572.25" fill="url(#wpspattern_mark_0)"></rect></svg>